<svg width="243" height="299" viewBox="0 0 243 299" fill="none" xmlns="http://www.w3.org/2000/svg">
<path d="M0.333333 149.096C0.333333 150.569 1.52724 151.763 3 151.763C4.47276 151.763 5.66667 150.569 5.66667 149.096C5.66667 147.623 4.47276 146.43 3 146.43C1.52724 146.43 0.333333 147.623 0.333333 149.096ZM3 149.096V149.596H4V149.096V148.596H3V149.096ZM6 149.096V149.596H8V149.096V148.596H6V149.096ZM10 149.096V149.596H12V149.096V148.596H10V149.096ZM14 149.096V149.596H16V149.096V148.596H14V149.096ZM18 149.096V149.596H20V149.096V148.596H18V149.096ZM22 149.096V149.596H24V149.096V148.596H22V149.096ZM26 149.096V149.596H28V149.096V148.596H26V149.096ZM30 149.096V149.596H32V149.096V148.596H30V149.096ZM34 149.096V149.596H36V149.096V148.596H34V149.096ZM38 149.096V149.596H40V149.096V148.596H38V149.096ZM42 149.096V149.596H44V149.096V148.596H42V149.096ZM46 149.096V149.596H48V149.096V148.596H46V149.096ZM50 149.096V149.596H52V149.096V148.596H50V149.096ZM54 149.096V149.596H56V149.096V148.596H54V149.096ZM58 149.096V149.596H60V149.096V148.596H58V149.096ZM62 149.096V149.596H64V149.096V148.596H62V149.096ZM66 149.096V149.596H68V149.096V148.596H66V149.096ZM70 149.096V149.596H72V149.096V148.596H70V149.096ZM74 149.096V149.596H76V149.096V148.596H74V149.096ZM78 149.096V149.596H80V149.096V148.596H78V149.096ZM82 149.096V149.596H84V149.096V148.596H82V149.096ZM86 149.096V149.596H88V149.096V148.596H86V149.096ZM90 149.096V149.596H92V149.096V148.596H90V149.096ZM94 149.096V149.596H96V149.096V148.596H94V149.096ZM98 149.096V149.596H100V149.096V148.596H98V149.096ZM102 149.096V149.596H104V149.096V148.596H102V149.096ZM106 149.096V149.596H108V149.096V148.596H106V149.096ZM110 149.096V149.596H112V149.096V148.596H110V149.096ZM114 149.096V149.596H116V149.096V148.596H114V149.096ZM118 149.096V149.596H119V149.096V148.596H118V149.096Z" fill="black"/>
<line x1="121.5" y1="4.09448" x2="122.5" y2="296.094" stroke="black" stroke-dasharray="2 2"/>
<path d="M243 3.59619L238 0.70944V6.48294L243 3.59619ZM123 3.59619V4.09619H124V3.59619V3.09619H123V3.59619ZM126 3.59619V4.09619H128V3.59619V3.09619H126V3.59619ZM130 3.59619V4.09619H132V3.59619V3.09619H130V3.59619ZM134 3.59619V4.09619H136V3.59619V3.09619H134V3.59619ZM138 3.59619V4.09619H140V3.59619V3.09619H138V3.59619ZM142 3.59619V4.09619H144V3.59619V3.09619H142V3.59619ZM146 3.59619V4.09619H148V3.59619V3.09619H146V3.59619ZM150 3.59619V4.09619H152V3.59619V3.09619H150V3.59619ZM154 3.59619V4.09619H156V3.59619V3.09619H154V3.59619ZM158 3.59619V4.09619H160V3.59619V3.09619H158V3.59619ZM162 3.59619V4.09619H164V3.59619V3.09619H162V3.59619ZM166 3.59619V4.09619H168V3.59619V3.09619H166V3.59619ZM170 3.59619V4.09619H172V3.59619V3.09619H170V3.59619ZM174 3.59619V4.09619H176V3.59619V3.09619H174V3.59619ZM178 3.59619V4.09619H180V3.59619V3.09619H178V3.59619ZM182 3.59619V4.09619H184V3.59619V3.09619H182V3.59619ZM186 3.59619V4.09619H188V3.59619V3.09619H186V3.59619ZM190 3.59619V4.09619H192V3.59619V3.09619H190V3.59619ZM194 3.59619V4.09619H196V3.59619V3.09619H194V3.59619ZM198 3.59619V4.09619H200V3.59619V3.09619H198V3.59619ZM202 3.59619V4.09619H204V3.59619V3.09619H202V3.59619ZM206 3.59619V4.09619H208V3.59619V3.09619H206V3.59619ZM210 3.59619V4.09619H212V3.59619V3.09619H210V3.59619ZM214 3.59619V4.09619H216V3.59619V3.09619H214V3.59619ZM218 3.59619V4.09619H220V3.59619V3.09619H218V3.59619ZM222 3.59619V4.09619H224V3.59619V3.09619H222V3.59619ZM226 3.59619V4.09619H228V3.59619V3.09619H226V3.59619ZM230 3.59619V4.09619H232V3.59619V3.09619H230V3.59619ZM234 3.59619V4.09619H236V3.59619V3.09619H234V3.59619ZM238 3.59619V4.09619H240V3.59619V3.09619H238V3.59619Z" fill="black"/>
<path d="M243 295.596L238 292.709V298.483L243 295.596ZM123 295.596V296.096H124V295.596V295.096H123V295.596ZM126 295.596V296.096H128V295.596V295.096H126V295.596ZM130 295.596V296.096H132V295.596V295.096H130V295.596ZM134 295.596V296.096H136V295.596V295.096H134V295.596ZM138 295.596V296.096H140V295.596V295.096H138V295.596ZM142 295.596V296.096H144V295.596V295.096H142V295.596ZM146 295.596V296.096H148V295.596V295.096H146V295.596ZM150 295.596V296.096H152V295.596V295.096H150V295.596ZM154 295.596V296.096H156V295.596V295.096H154V295.596ZM158 295.596V296.096H160V295.596V295.096H158V295.596ZM162 295.596V296.096H164V295.596V295.096H162V295.596ZM166 295.596V296.096H168V295.596V295.096H166V295.596ZM170 295.596V296.096H172V295.596V295.096H170V295.596ZM174 295.596V296.096H176V295.596V295.096H174V295.596ZM178 295.596V296.096H180V295.596V295.096H178V295.596ZM182 295.596V296.096H184V295.596V295.096H182V295.596ZM186 295.596V296.096H188V295.596V295.096H186V295.596ZM190 295.596V296.096H192V295.596V295.096H190V295.596ZM194 295.596V296.096H196V295.596V295.096H194V295.596ZM198 295.596V296.096H200V295.596V295.096H198V295.596ZM202 295.596V296.096H204V295.596V295.096H202V295.596ZM206 295.596V296.096H208V295.596V295.096H206V295.596ZM210 295.596V296.096H212V295.596V295.096H210V295.596ZM214 295.596V296.096H216V295.596V295.096H214V295.596ZM218 295.596V296.096H220V295.596V295.096H218V295.596ZM222 295.596V296.096H224V295.596V295.096H222V295.596ZM226 295.596V296.096H228V295.596V295.096H226V295.596ZM230 295.596V296.096H232V295.596V295.096H230V295.596ZM234 295.596V296.096H236V295.596V295.096H234V295.596ZM238 295.596V296.096H240V295.596V295.096H238V295.596Z" fill="black"/>
</svg>
